<svg id="Layer_1" data-name="Layer 1" xmlns="http://www.w3.org/2000/svg" xmlns:xlink="http://www.w3.org/1999/xlink" viewBox="0 0 694.138 694.146"><defs><linearGradient id="linear-gradient" x1="709.525" y1="76.103" x2="898.713" y2="744.07" gradientUnits="userSpaceOnUse"><stop offset="0" stop-color="#60c"/><stop offset="0.361" stop-color="#3d679c"/><stop offset="0.673" stop-color="#1cb976"/><stop offset="0.893" stop-color="#08eb5e"/><stop offset="1" stop-color="#0f5"/></linearGradient></defs><path d="M1090.317,201.162h0C987.151,39.638,772.577-7.671,611.053,95.5h0a348.71,348.71,0,0,0-51.731,40.357c20.816,10.575,297.4,147.5,461.648,42.6C1191.716,69.394,745.247,486.213,1037.4,638.509c0,0-292.155-152.3-462.9-43.24C404,704.17,848.944,288.7,559.307,135.866,440.566,247.977,414.245,432.061,505.386,574.759h0C608.552,736.283,823.126,783.592,984.65,680.426h0C1146.174,577.26,1193.483,362.686,1090.317,201.162Z" transform="translate(-450.786 -40.887)" style="fill:url(#linear-gradient)"/></svg>